<?xml version="1.0" standalone="no"?>
<!DOCTYPE svg PUBLIC "-//W3C//DTD SVG 20010904//EN"
 "http://www.w3.org/TR/2001/REC-SVG-20010904/DTD/svg10.dtd">
<svg version="1.0" xmlns="http://www.w3.org/2000/svg"
 width="192.000000pt" height="192.000000pt" viewBox="0 0 192.000000 192.000000"
 preserveAspectRatio="xMidYMid meet">
<metadata>
Created by potrace 1.14, written by Peter Selinger 2001-2017
</metadata>
<g transform="translate(0.000000,192.000000) scale(0.100000,-0.100000)"
fill="#000000" stroke="none">
<path d="M640 1287 c0 -9 -22 -125 -27 -141 -4 -15 -11 -5 -28 39 -21 57 -46
87 -61 72 -4 -4 9 -56 30 -117 l37 -109 -36 -85 c-20 -47 -34 -90 -30 -96 14
-23 37 -7 60 45 13 30 26 55 29 55 2 0 12 -22 21 -49 18 -56 40 -80 57 -63 7
7 1 36 -22 101 l-32 90 21 116 c17 90 19 120 10 131 -10 12 -29 19 -29 11z"/>
<path d="M1242 1280 c-28 -12 -46 -51 -38 -84 3 -14 28 -53 55 -88 83 -108 99
-158 65 -206 -28 -40 -84 -23 -84 25 0 29 -29 42 -44 21 -6 -8 -16 -13 -22
-11 -7 2 -29 -8 -49 -22 -43 -29 -70 -32 -79 -9 -3 9 -6 45 -6 80 l0 64 33 0
c31 0 57 14 57 32 0 4 -22 8 -50 8 l-50 0 0 70 0 70 46 0 c49 0 88 15 79 31
-9 14 -128 11 -150 -4 -16 -13 -17 -27 -13 -183 3 -99 10 -179 16 -191 18 -32
63 -38 115 -15 25 11 48 25 51 31 5 7 19 -2 40 -24 42 -44 89 -48 134 -10 62
52 49 129 -42 249 -44 57 -57 81 -54 103 2 23 8 29 35 31 29 3 33 0 41 -30 11
-45 42 -51 42 -8 0 61 -63 95 -128 70z"/>
<path d="M863 1253 c3 -16 9 -57 13 -92 8 -72 2 -81 -58 -81 l-38 0 0 78 c0
84 -9 108 -35 98 -15 -5 -17 -25 -13 -196 2 -156 6 -192 18 -200 29 -18 34 -4
31 87 l-3 90 39 6 c65 11 63 14 63 -76 0 -82 9 -107 37 -107 10 0 13 25 13 99
0 56 4 103 10 106 15 9 12 35 -4 35 -9 0 -15 21 -19 74 -8 90 -14 106 -39 106
-17 0 -20 -5 -15 -27z"/>
<path d="M740 648 c-27 -44 -44 -103 -36 -124 6 -16 8 -16 22 -2 23 22 44 91
33 104 -6 8 -4 17 6 27 17 18 19 27 5 27 -6 0 -19 -15 -30 -32z m-5 -97 c-29
-58 -32 -23 -3 46 11 26 12 27 15 6 2 -12 -3 -35 -12 -52z"/>
<path d="M940 639 c-21 -47 -27 -80 -11 -63 12 12 42 97 36 103 -3 2 -14 -16
-25 -40z"/>
<path d="M798 629 c-19 -11 -25 -64 -8 -74 5 -3 7 0 4 9 -6 15 12 56 30 68 17
12 -6 9 -26 -3z"/>
<path d="M842 628 c-18 -22 -25 -65 -11 -73 8 -5 10 -4 5 3 -4 6 0 25 9 43 17
32 15 49 -3 27z"/>
<path d="M973 623 c-1 -10 -4 -31 -8 -48 -6 -30 -6 -30 10 4 8 18 15 40 15 47
0 20 -15 17 -17 -3z"/>
<path d="M1014 606 c-14 -27 -15 -39 -6 -46 7 -6 10 -7 7 -4 -2 4 2 22 11 42
19 47 9 54 -12 8z"/>
<path d="M1066 618 c-9 -12 -16 -32 -15 -43 0 -15 4 -13 15 12 7 17 18 34 24
38 19 12 22 -25 4 -53 -17 -26 -17 -26 0 -12 25 20 36 52 24 68 -16 18 -35 15
-52 -10z"/>
<path d="M1141 615 c-19 -49 -21 -55 -16 -55 9 0 36 62 32 73 -3 7 -10 -1 -16
-18z"/>
<path d="M1186 632 c2 -2 -4 -18 -12 -34 -11 -21 -12 -33 -5 -39 6 -5 9 -6 6
-3 -2 4 3 20 11 36 9 18 12 33 6 38 -5 4 -8 5 -6 2z"/>
<path d="M861 591 c-14 -25 -14 -31 -1 -31 6 0 9 6 8 13 -2 6 5 11 15 11 10
-1 16 3 14 9 -6 19 -25 19 -36 -2z"/>
</g>
</svg>
